<?xml version="1.0" encoding="UTF-8" standalone="no"?>
<svg
   xmlns:osb="http://www.openswatchbook.org/uri/2009/osb"
   xmlns:dc="http://purl.org/dc/elements/1.1/"
   xmlns:cc="http://creativecommons.org/ns#"
   xmlns:rdf="http://www.w3.org/1999/02/22-rdf-syntax-ns#"
   xmlns:svg="http://www.w3.org/2000/svg"
   xmlns="http://www.w3.org/2000/svg"
   xmlns:xlink="http://www.w3.org/1999/xlink"
   xmlns:sodipodi="http://sodipodi.sourceforge.net/DTD/sodipodi-0.dtd"
   xmlns:inkscape="http://www.inkscape.org/namespaces/inkscape"
   aria-hidden="true"
   data-prefix="fas"
   data-icon="dove"
   class="svg-inline--fa fa-dove fa-w-16"
   role="img"
   viewBox="0 0 512 512"
   version="1.1"
   id="svg4528"
   sodipodi:docname="dove-jsg-greent.svg"
   inkscape:version="0.92.4 (5da689c313, 2019-01-14)">
  <metadata
     id="metadata4534">
    <rdf:RDF>
      <cc:Work
         rdf:about="">
        <dc:format>image/svg+xml</dc:format>
        <dc:type
           rdf:resource="http://purl.org/dc/dcmitype/StillImage" />
        <dc:title></dc:title>
      </cc:Work>
    </rdf:RDF>
  </metadata>
  <defs
     id="defs4532">
    <linearGradient
       id="linearGradient6577"
       osb:paint="solid">
      <stop
         style="stop-color:#ffffff;stop-opacity:1;"
         offset="0"
         id="stop6575" />
    </linearGradient>
    <linearGradient
       inkscape:collect="always"
       xlink:href="#linearGradient6577"
       id="linearGradient6579"
       x1="42.679688"
       y1="552.37907"
       x2="162.30469"
       y2="552.37907"
       gradientUnits="userSpaceOnUse" />
  </defs>
  <sodipodi:namedview
     pagecolor="#ffffff"
     bordercolor="#666666"
     borderopacity="1"
     objecttolerance="10"
     gridtolerance="10"
     guidetolerance="10"
     inkscape:pageopacity="0"
     inkscape:pageshadow="2"
     inkscape:window-width="909"
     inkscape:window-height="720"
     id="namedview4530"
     showgrid="false"
     inkscape:zoom="0.4609375"
     inkscape:cx="309.21214"
     inkscape:cy="-116.0678"
     inkscape:window-x="101"
     inkscape:window-y="33"
     inkscape:window-maximized="0"
     inkscape:current-layer="svg4528" />
  <path
     fill="currentColor"
     d="M288 167.2v-28.1c-28.2-36.3-47.1-79.3-54.1-125.2-2.1-13.5-19-18.8-27.8-8.3-21.1 24.9-37.7 54.1-48.9 86.5 34.2 38.3 80 64.6 130.8 75.1zM400 64c-44.2 0-80 35.9-80 80.1v59.4C215.6 197.3 127 133 87 41.8c-5.5-12.5-23.2-13.2-29-.9C41.4 76 32 115.2 32 156.6c0 70.8 34.1 136.9 85.1 185.9 13.2 12.7 26.1 23.2 38.9 32.8l-143.9 36C1.4 414-3.4 426.4 2.6 435.7 20 462.6 63 508.2 155.8 512c8 .3 16-2.6 22.1-7.9l65.2-56.1H320c88.4 0 160-71.5 160-159.9V128l32-64H400zm0 96.1c-8.8 0-16-7.2-16-16s7.2-16 16-16 16 7.2 16 16-7.2 16-16 16z"
     id="path4526"
     style="stroke:none;fill-opacity:1;fill:#55ffdd" />
  <flowRoot
     xml:space="preserve"
     id="flowRoot5079"
     style="font-style:normal;font-weight:bold;font-size:40px;line-height:125%;font-family:'Open Sans Condensed';letter-spacing:0px;word-spacing:0px;fill:url(#linearGradient6579);fill-opacity:1;stroke:none;stroke-width:0.60509962px;stroke-linecap:butt;stroke-linejoin:miter;stroke-opacity:1;-inkscape-font-specification:'Open Sans Condensed,  Bold Condensed';font-stretch:condensed;font-variant:normal;"
     transform="matrix(1.7798381,0,0,1.5344959,120.75065,-479.65112)"><flowRegion
       id="flowRegion5081"
       style="fill:url(#linearGradient6579);stroke-width:0.60509962px;fill-opacity:1;-inkscape-font-specification:'Open Sans Condensed,  Bold Condensed';font-family:'Open Sans Condensed';font-weight:bold;font-style:normal;font-stretch:condensed;font-variant:normal;"><rect
         id="rect5083"
         width="340.6102"
         height="149.6949"
         x="49.898304"
         y="527.18646"
         style="fill:url(#linearGradient6579);stroke-width:0.60509962px;fill-opacity:1;-inkscape-font-specification:'Open Sans Condensed,  Bold Condensed';font-family:'Open Sans Condensed';font-weight:bold;font-style:normal;font-stretch:condensed;font-variant:normal;" /></flowRegion><flowPara
       id="flowPara5085"
       style="font-style:normal;font-variant:normal;font-weight:bold;font-stretch:condensed;font-size:96px;font-family:'Open Sans Condensed';-inkscape-font-specification:'Open Sans Condensed,  Bold Condensed';fill:url(#linearGradient6579);stroke-width:0.60509962px;fill-opacity:1;">JSG</flowPara></flowRoot></svg>
