<?xml version="1.0" encoding="utf-8"?>
<!-- Generator: Adobe Illustrator 17.0.0, SVG Export Plug-In . SVG Version: 6.00 Build 0)  -->
<!DOCTYPE svg PUBLIC "-//W3C//DTD SVG 1.1//EN" "http://www.w3.org/Graphics/SVG/1.1/DTD/svg11.dtd">
<svg version="1.1" xmlns="http://www.w3.org/2000/svg" xmlns:xlink="http://www.w3.org/1999/xlink" x="0px" y="0px" width="630px"
	 height="558px" viewBox="0.14 144.445 630 558" enable-background="new 0.14 144.445 630 558" xml:space="preserve">
<g id="Capa_1">
	<g id="XMLID_312_">
		<path id="XMLID_317_" fill="#11998E" d="M419.72,433.615c-26.97-42.078-73.511-67.529-123.483-67.529
			c-49.965,0-96.507,25.45-123.476,67.529L98.514,549.436c-20.334,31.726-17.495,73.026,6.976,101.667
			c24.502,28.642,64.86,37.867,99.374,22.699l0.023-0.021c58.215-25.588,124.495-25.588,182.727,0.021
			c34.493,15.169,74.851,5.954,99.356-22.688c24.491-28.641,27.33-69.953,6.996-101.678L419.72,433.615z"/>
		<path id="XMLID_316_" fill="#11998E" d="M112.964,422.447c34.131-13.115,49.289-56.242,33.874-96.287
			c-15.425-40.036-55.588-61.878-89.681-48.742c-34.104,13.114-49.241,56.232-33.853,96.285
			C38.736,413.727,78.901,435.58,112.964,422.447z"/>
		<path id="XMLID_315_" fill="#11998E" d="M247.015,349.927c44.457,0,80.511-42.332,80.511-94.526
			c0-52.216-36.054-94.547-80.511-94.547c-44.445,0-80.5,42.329-80.5,94.547C166.515,307.595,202.57,349.927,247.015,349.927z"/>
		<path id="XMLID_314_" fill="#11998E" d="M397.126,378.023c42.188,14.019,89.761-14.788,106.225-64.319
			c16.476-49.539-4.403-101.083-46.566-115.102c-42.191-14.018-89.762,14.788-106.215,64.328
			C334.105,312.47,354.963,364.005,397.126,378.023z"/>
		<path id="XMLID_313_" fill="#11998E" d="M588.342,363.809c-29.403-21.723-73.908-11.402-99.448,23.097
			c-25.51,34.509-22.38,80.099,6.966,101.823c29.337,21.736,73.894,11.404,99.449-23.088
			C620.818,431.134,617.679,385.535,588.342,363.809z"/>
	</g>
</g>
<g id="Capa_2">
	<rect x="41.927" y="480.445" fill="none" width="546" height="293"/>
	<text transform="matrix(1 0 0 1 233.5323 582.2844)" fill="#FFFFFF" font-family="'OpenSansCondensed-Bold'" font-size="134">JSG</text>
</g>
</svg>
