<svg width="192" height="88" viewBox="0 0 192 88" fill="none" xmlns="http://www.w3.org/2000/svg">
<g clip-path="url(#clip0)">
<path d="M191.133 36.2929L187.319 31.172C186.473 30.0207 185.092 29.3333 183.66 29.3333H162.277V25.9824H164.245C165.194 25.9824 165.97 25.2091 165.97 24.264V8.5577C165.97 7.61258 165.194 6.83929 164.245 6.83929H162.277V4.72564C162.277 2.11365 160.155 0 157.531 0C154.908 0 152.785 2.11365 152.785 4.72564V6.83929H130.609C129.176 6.83929 127.813 7.52666 126.95 8.67799L123.136 13.7989C121.98 15.3626 121.98 17.4763 123.136 19.04L126.95 24.1609C127.796 25.3122 129.176 25.9996 130.609 25.9996H152.785V29.3505H150.024C149.075 29.3505 148.298 30.1238 148.298 31.0689V46.7752C148.298 47.7204 149.075 48.4937 150.024 48.4937H152.785V77.3974C150.369 78.9096 148.73 81.5388 148.609 84.5632H142.051C141.102 84.5632 140.325 85.3365 140.325 86.2816C140.325 87.2267 141.102 88 142.051 88H150.335H164.745H172.235C173.184 88 173.961 87.2267 173.961 86.2816C173.961 85.3365 173.184 84.5632 172.235 84.5632H166.454C166.333 81.5388 164.693 78.9096 162.277 77.3974V48.4765H183.66C185.092 48.4765 186.456 47.7891 187.319 46.6378L191.133 41.5169C192.289 39.9703 192.289 37.8567 191.133 36.2929Z" fill="#D6FFF6"/>
<path d="M0.569618 26.3087C0.328006 26.0682 0.189941 25.7073 0.189941 25.2605V14.3142C0.189941 13.8502 0.328006 13.4894 0.604134 13.2144C0.880263 12.9395 1.25994 12.802 1.72591 12.802C2.19187 12.802 2.57155 12.9395 2.84768 13.2144C3.12381 13.4894 3.26187 13.8502 3.26187 14.3142V24.2123H8.28396C9.23315 24.2123 9.71638 24.6247 9.71638 25.4667C9.71638 26.2916 9.23315 26.704 8.28396 26.704H1.63962C1.17365 26.6868 0.828489 26.5665 0.569618 26.3087Z" fill="#00B99E"/>
<path d="M24.2996 25.4494C24.2996 25.8103 24.1443 26.1196 23.8509 26.3773C23.5576 26.6351 23.2124 26.7554 22.8327 26.7554C22.5911 26.7554 22.3495 26.6866 22.1251 26.5492C21.9008 26.4117 21.7282 26.2055 21.6074 25.9305L20.5719 23.6279H13.9276L12.8921 25.9305C12.7713 26.2055 12.5987 26.4117 12.3916 26.5492C12.1672 26.6866 11.9429 26.7554 11.6668 26.7554C11.2871 26.7554 10.9419 26.6351 10.6485 26.3773C10.3552 26.1196 10.1998 25.8103 10.1998 25.4494C10.1998 25.2604 10.2516 25.0541 10.3552 24.8308L15.6534 13.747C15.7914 13.4377 16.0158 13.1971 16.3092 13.0252C16.6026 12.8706 16.9132 12.7847 17.2239 12.7847C17.569 12.7847 17.8797 12.8706 18.173 13.0424C18.4664 13.2143 18.6908 13.4548 18.8461 13.747L24.1443 24.8308C24.2479 25.0713 24.2996 25.2775 24.2996 25.4494ZM14.963 21.3252H19.5364L17.2584 16.2559L14.963 21.3252Z" fill="#00B99E"/>
<path d="M27.8892 26.4977C26.9918 26.2572 26.2669 25.9135 25.7147 25.4667C25.5248 25.3292 25.3695 25.1746 25.3005 25.0027C25.2142 24.8481 25.1797 24.6419 25.1797 24.3841C25.1797 24.0576 25.2832 23.7655 25.4903 23.5249C25.6974 23.2843 25.9218 23.1468 26.1807 23.1468C26.3187 23.1468 26.4568 23.164 26.5948 23.2156C26.7329 23.2671 26.9055 23.3359 27.0953 23.4562C27.6648 23.7998 28.2344 24.0576 28.8039 24.2294C29.3734 24.3841 30.0119 24.47 30.7023 24.47C31.5652 24.47 32.221 24.3325 32.6869 24.0404C33.1529 23.7483 33.3773 23.3359 33.3773 22.8032C33.3773 22.3907 33.1702 22.0814 32.7387 21.8237C32.3073 21.5831 31.5652 21.3425 30.4779 21.1191C29.2526 20.8785 28.2861 20.5692 27.5613 20.2255C26.8365 19.8819 26.3015 19.4351 25.9736 18.9195C25.6457 18.404 25.4731 17.7682 25.4731 17.0293C25.4731 16.2044 25.7147 15.4655 26.1979 14.8125C26.6811 14.1595 27.3369 13.644 28.1826 13.266C29.0282 12.8879 29.9774 12.7161 31.0474 12.7161C32.9113 12.7161 34.43 13.18 35.6381 14.108C35.8279 14.2626 35.9832 14.4173 36.0523 14.5891C36.1385 14.7438 36.1731 14.95 36.1731 15.1906C36.1731 15.5171 36.0695 15.8092 35.8624 16.0498C35.6553 16.2904 35.431 16.4278 35.1721 16.4278C35.034 16.4278 34.896 16.4107 34.7752 16.3763C34.6544 16.3419 34.4818 16.256 34.2574 16.1185C33.7224 15.7748 33.2219 15.5171 32.7732 15.3624C32.3245 15.1906 31.755 15.1047 31.0474 15.1047C30.2536 15.1047 29.615 15.2593 29.1663 15.5686C28.7003 15.8779 28.476 16.2904 28.476 16.8231C28.476 17.1324 28.5623 17.3902 28.7348 17.5964C28.9074 17.8026 29.2008 17.9744 29.615 18.1291C30.0292 18.2837 30.616 18.4556 31.3753 18.6102C33.1529 19.0055 34.43 19.5038 35.2066 20.1224C35.9832 20.7411 36.3802 21.5831 36.3802 22.6485C36.3802 23.4905 36.1558 24.2123 35.6898 24.8653C35.2239 25.5011 34.5681 25.9994 33.7224 26.3431C32.8768 26.6868 31.8931 26.8758 30.7886 26.8758C29.7358 26.8586 28.7694 26.7383 27.8892 26.4977Z" fill="#00B99E"/>
<path d="M46.8382 25.9996C45.82 25.4325 45.0262 24.6076 44.4739 23.5422C43.9216 22.4768 43.6455 21.2224 43.6455 19.7961C43.6455 18.3698 43.9216 17.1154 44.4739 16.0499C45.0262 14.9845 45.8028 14.1769 46.8382 13.5926C47.8565 13.0255 49.0473 12.7334 50.4107 12.7334C52.1192 12.7334 53.6034 13.1974 54.846 14.1425C55.0358 14.2972 55.1739 14.4518 55.2602 14.6065C55.3465 14.7611 55.381 14.9502 55.381 15.1907C55.381 15.5344 55.2774 15.8265 55.1048 16.0671C54.915 16.3077 54.6907 16.428 54.4145 16.428C54.2247 16.428 54.0694 16.4108 53.9313 16.3593C53.7932 16.3077 53.6379 16.239 53.4653 16.1187C52.9476 15.775 52.4644 15.5344 52.0157 15.3798C51.5669 15.2251 51.101 15.1564 50.5832 15.1564C49.3234 15.1564 48.3742 15.5516 47.7529 16.3249C47.1144 17.0982 46.8037 18.2495 46.8037 19.7961C46.8037 22.9064 48.0636 24.453 50.6005 24.453C51.0837 24.453 51.5497 24.3842 51.9811 24.2296C52.4126 24.0749 52.9131 23.8344 53.4998 23.4907C53.6897 23.3704 53.8623 23.2845 53.9831 23.2501C54.1211 23.1985 54.2592 23.1814 54.4318 23.1814C54.7079 23.1814 54.9323 23.3016 55.1221 23.5422C55.3119 23.7828 55.3982 24.0749 55.3982 24.4186C55.3982 24.6592 55.3637 24.8482 55.2774 25.0201C55.1911 25.1747 55.0531 25.3294 54.8805 25.484C53.6379 26.4292 52.1537 26.8931 50.4452 26.8931C49.0473 26.8588 47.8565 26.5838 46.8382 25.9996Z" fill="#00B99E"/>
<path d="M70.2233 25.4494C70.2233 25.8103 70.068 26.1196 69.7746 26.3773C69.4812 26.6351 69.136 26.7554 68.7563 26.7554C68.5147 26.7554 68.2731 26.6866 68.0488 26.5492C67.8244 26.4117 67.6518 26.2055 67.531 25.9305L66.4955 23.6279H59.8339L58.7985 25.9305C58.6776 26.2055 58.5051 26.4117 58.298 26.5492C58.0736 26.6866 57.8493 26.7554 57.5731 26.7554C57.1935 26.7554 56.8483 26.6351 56.5549 26.3773C56.2615 26.1196 56.1062 25.8103 56.1062 25.4494C56.1062 25.2604 56.158 25.0541 56.2615 24.8308L61.577 13.747C61.7151 13.4377 61.9394 13.1971 62.2328 13.0252C62.5262 12.8706 62.8368 12.7847 63.1475 12.7847C63.4926 12.7847 63.8033 12.8706 64.0967 13.0424C64.3901 13.2143 64.6144 13.4548 64.7697 13.747L70.068 24.8308C70.1715 25.0713 70.2233 25.2775 70.2233 25.4494ZM60.8867 21.3252H65.4601L63.182 16.2559L60.8867 21.3252Z" fill="#00B99E"/>
<path d="M72.2769 26.3087C72.0353 26.0682 71.8972 25.7073 71.8972 25.2605V14.3142C71.8972 13.8502 72.0353 13.4894 72.3114 13.2144C72.5875 12.9395 72.9672 12.802 73.4332 12.802C73.8991 12.802 74.2788 12.9395 74.555 13.2144C74.8311 13.4894 74.9691 13.8502 74.9691 14.3142V24.2123H79.9912C80.9404 24.2123 81.4237 24.6247 81.4237 25.4667C81.4237 26.2916 80.9404 26.704 79.9912 26.704H73.3296C72.8809 26.6868 72.5358 26.5665 72.2769 26.3087Z" fill="#00B99E"/>
<path d="M83.339 26.3087C83.0974 26.0682 82.9594 25.7073 82.9594 25.2605V14.3142C82.9594 13.8502 83.0974 13.4894 83.3735 13.2144C83.6497 12.9395 84.0293 12.802 84.4953 12.802C84.9613 12.802 85.341 12.9395 85.6171 13.2144C85.8932 13.4894 86.0313 13.8502 86.0313 14.3142V24.2123H91.0534C92.0026 24.2123 92.4858 24.6247 92.4858 25.4667C92.4858 26.2916 92.0026 26.704 91.0534 26.704H84.3918C83.9431 26.6868 83.5806 26.5665 83.339 26.3087Z" fill="#00B99E"/>
<path d="M94.3846 26.3089C94.1429 26.0683 94.0049 25.7075 94.0049 25.2607V14.3316C94.0049 13.8676 94.1257 13.5239 94.3846 13.2833C94.6262 13.0427 94.9886 12.9053 95.4373 12.9053H102.392C103.359 12.9053 103.842 13.3005 103.842 14.0738C103.842 14.8643 103.359 15.2595 102.392 15.2595H97.0078V18.4901H102.013C102.979 18.4901 103.462 18.8854 103.462 19.6758C103.462 20.4663 102.979 20.8443 102.013 20.8443H97.0078V24.2984H102.41C103.376 24.2984 103.859 24.6936 103.859 25.4841C103.859 26.2745 103.376 26.6526 102.41 26.6526H95.4546C94.9886 26.687 94.6434 26.5667 94.3846 26.3089Z" fill="#00B99E"/>
<path d="M107.569 26.4977C106.672 26.2572 105.947 25.9135 105.395 25.4667C105.205 25.3292 105.05 25.1746 104.981 25.0027C104.894 24.8481 104.86 24.6419 104.86 24.3841C104.86 24.0576 104.963 23.7655 105.17 23.5249C105.377 23.2843 105.602 23.1468 105.861 23.1468C105.999 23.1468 106.137 23.164 106.275 23.2156C106.413 23.2671 106.586 23.3359 106.775 23.4562C107.345 23.7998 107.914 24.0576 108.484 24.2294C109.053 24.3841 109.692 24.47 110.382 24.47C111.245 24.47 111.901 24.3325 112.367 24.0404C112.833 23.7483 113.057 23.3359 113.057 22.8032C113.057 22.3907 112.85 22.0814 112.419 21.8237C111.987 21.5831 111.245 21.3425 110.158 21.1191C108.933 20.8785 107.966 20.5692 107.241 20.2255C106.517 19.8819 105.982 19.4351 105.654 18.9195C105.326 18.404 105.153 17.7682 105.153 17.0293C105.153 16.2044 105.395 15.4655 105.878 14.8125C106.361 14.1595 107.017 13.644 107.863 13.266C108.708 12.8879 109.657 12.7161 110.727 12.7161C112.591 12.7161 114.11 13.18 115.318 14.108C115.508 14.2626 115.663 14.4173 115.732 14.5891C115.819 14.7438 115.853 14.95 115.853 15.1906C115.853 15.5171 115.75 15.8092 115.542 16.0498C115.335 16.2904 115.111 16.4278 114.852 16.4278C114.714 16.4278 114.576 16.4107 114.455 16.3763C114.334 16.3419 114.162 16.256 113.937 16.1185C113.402 15.7748 112.902 15.5171 112.453 15.3624C112.005 15.1906 111.435 15.1047 110.727 15.1047C109.934 15.1047 109.295 15.2593 108.846 15.5686C108.38 15.8779 108.156 16.2904 108.156 16.8231C108.156 17.1324 108.242 17.3902 108.415 17.5964C108.587 17.8026 108.881 17.9744 109.295 18.1291C109.709 18.2837 110.296 18.4556 111.055 18.6102C112.833 19.0055 114.11 19.5038 114.887 20.1224C115.663 20.7411 116.06 21.5831 116.06 22.6485C116.06 23.4905 115.836 24.2123 115.37 24.8653C114.904 25.5011 114.248 25.9994 113.402 26.3431C112.557 26.6868 111.573 26.8758 110.469 26.8758C109.416 26.8586 108.449 26.7383 107.569 26.4977Z" fill="#00B99E"/>
<path d="M22.8151 53.7862C23.2811 54.2673 23.5055 54.886 23.5055 55.6421V74.6821C23.5055 75.421 23.2984 76.0053 22.8669 76.4177C22.4355 76.8473 21.8832 77.0535 21.1756 77.0535C20.5026 77.0535 19.9503 76.8473 19.5188 76.4177C19.0874 75.9881 18.8803 75.4038 18.8803 74.6821V62.8594L14.0998 71.8124C13.7892 72.3966 13.444 72.809 13.0816 73.084C12.7192 73.3589 12.2705 73.4792 11.7527 73.4792C11.2522 73.4792 10.8208 73.3417 10.4411 73.084C10.0614 72.809 9.71628 72.3966 9.40563 71.8124L4.62515 63.0313V74.6993C4.62515 75.421 4.41806 75.9881 3.98661 76.4177C3.55516 76.8473 3.0029 77.0707 2.29532 77.0707C1.62226 77.0707 1.07 76.8645 0.638547 76.4349C0.207096 76.0053 0 75.421 0 74.6993V55.6421C0 54.886 0.224355 54.2673 0.690322 53.7862C1.15629 53.305 1.74306 53.0645 2.48516 53.0645C3.55516 53.0645 4.38354 53.6315 4.9358 54.7657L11.77 67.671L18.5697 54.7657C19.1737 53.6315 19.9848 53.0645 20.9858 53.0645C21.7624 53.0645 22.3664 53.305 22.8151 53.7862Z" fill="#FFCA3A"/>
<path d="M30.771 74.5962C29.0279 72.895 28.165 70.3861 28.165 67.1039V55.6421C28.165 54.8516 28.4067 54.233 28.8726 53.769C29.3386 53.305 29.9771 53.0645 30.7537 53.0645C31.5304 53.0645 32.1689 53.305 32.6176 53.769C33.0836 54.233 33.3079 54.8688 33.3079 55.6421V67.3445C33.3079 69.2175 33.7394 70.6438 34.6023 71.6405C35.4652 72.62 36.725 73.1183 38.3473 73.1183C39.9868 73.1183 41.2466 72.62 42.1095 71.6233C42.9897 70.6266 43.4211 69.2004 43.4211 67.3445V55.6421C43.4211 54.8516 43.6455 54.233 44.1115 53.769C44.5774 53.305 45.1987 53.0645 45.9753 53.0645C46.7519 53.0645 47.3905 53.305 47.8565 53.769C48.3224 54.233 48.564 54.8688 48.564 55.6421V67.1039C48.564 70.3689 47.6839 72.8606 45.9408 74.579C44.1978 76.2974 41.6608 77.1566 38.33 77.1566C35.0337 77.1566 32.4968 76.2974 30.771 74.5962Z" fill="#FFCA3A"/>
<path d="M50.3936 76.5896C49.8586 76.2288 49.5997 75.6789 49.5997 74.94C49.5997 74.2698 49.7723 73.7714 50.1002 73.4449C50.4454 73.1184 50.9631 72.9294 51.688 72.8951L52.758 72.8263C54.3802 72.7576 55.1741 71.8125 55.1741 69.9737V55.625C55.1741 54.8345 55.4157 54.2159 55.9162 53.7519C56.4167 53.2879 57.0552 53.0474 57.8318 53.0474C58.6084 53.0474 59.247 53.2879 59.7302 53.7519C60.2134 54.2159 60.455 54.8517 60.455 55.625V69.905C60.455 74.3213 58.2288 76.6927 53.7934 76.9849L52.7234 77.0536C51.688 77.1052 50.9113 76.9505 50.3936 76.5896Z" fill="#FFCA3A"/>
<path d="M65.8223 76.229C65.3908 75.7994 65.1837 75.1979 65.1837 74.4246V55.6767C65.1837 54.8863 65.3908 54.2848 65.8223 53.8724C66.2537 53.4428 66.8577 53.2366 67.6344 53.2366H79.5424C81.1992 53.2366 82.0276 53.9068 82.0276 55.2471C82.0276 56.6047 81.1992 57.292 79.5424 57.292H70.2921V62.8253H78.8866C80.5434 62.8253 81.3718 63.5127 81.3718 64.8702C81.3718 66.2106 80.5434 66.8808 78.8866 66.8808H70.3094V72.8093H79.5597C81.2164 72.8093 82.0448 73.4967 82.0448 74.8542C82.0448 76.1946 81.2164 76.8648 79.5597 76.8648H67.6516C66.8577 76.8648 66.2537 76.6414 65.8223 76.229Z" fill="#FFCA3A"/>
<path d="M105.102 74.9745C105.102 75.5931 104.843 76.1087 104.342 76.5211C103.842 76.9163 103.255 77.1225 102.582 77.1225C102.15 77.1225 101.736 77.0194 101.339 76.8132C100.942 76.607 100.597 76.2977 100.321 75.8681L95.8857 69.3037C95.5061 68.7195 95.0919 68.3071 94.6777 68.0493C94.2462 67.7915 93.7112 67.6713 93.0554 67.6713H90.3287V74.4418C90.3287 75.2495 90.1043 75.8853 89.6383 76.3492C89.1724 76.8132 88.5511 77.0538 87.7745 77.0538C86.9633 77.0538 86.3248 76.8132 85.8588 76.3492C85.3929 75.8853 85.1512 75.2495 85.1512 74.4418V55.6767C85.1512 54.8863 85.3583 54.2848 85.7898 53.8724C86.2212 53.4428 86.8253 53.2366 87.6019 53.2366H96.0583C98.8369 53.2366 100.942 53.838 102.375 55.0581C103.807 56.2782 104.515 58.0309 104.515 60.3336C104.515 62.138 104.014 63.6502 102.996 64.8531C101.978 66.0559 100.563 66.8464 98.7161 67.2245C99.3891 67.3619 99.9932 67.6197 100.511 68.0149C101.046 68.4102 101.546 68.9772 102.047 69.699L104.601 73.5482C104.929 74.0294 105.102 74.5105 105.102 74.9745ZM98.5435 62.9284C99.2166 62.3957 99.5617 61.5881 99.5617 60.4711C99.5617 59.3369 99.2166 58.5121 98.5435 57.9966C97.8704 57.4811 96.7832 57.2233 95.2817 57.2233H90.2596V63.7189H95.2817C96.7659 63.7189 97.8704 63.4611 98.5435 62.9284Z" fill="#FFCA3A"/>
<path d="M109.382 76.229C108.95 75.7994 108.743 75.1979 108.743 74.4246V55.6767C108.743 54.8863 108.95 54.2848 109.382 53.8724C109.813 53.4428 110.417 53.2366 111.194 53.2366H123.102C124.759 53.2366 125.587 53.9068 125.587 55.2471C125.587 56.6047 124.759 57.292 123.102 57.292H113.851V62.8253H122.429C124.085 62.8253 124.914 63.5127 124.914 64.8702C124.914 66.2106 124.085 66.8808 122.429 66.8808H113.851V72.8093H123.102C124.759 72.8093 125.587 73.4967 125.587 74.8542C125.587 76.1946 124.759 76.8648 123.102 76.8648H111.194C110.4 76.8648 109.796 76.6414 109.382 76.229Z" fill="#FFCA3A"/>
<path d="M131.955 76.5381C130.436 76.1257 129.176 75.5414 128.227 74.7853C127.882 74.5448 127.658 74.2698 127.502 73.9949C127.364 73.7199 127.278 73.359 127.278 72.9466C127.278 72.3967 127.451 71.8984 127.796 71.4688C128.141 71.0392 128.538 70.833 128.987 70.833C129.228 70.833 129.47 70.8673 129.711 70.9533C129.953 71.0392 130.229 71.1767 130.574 71.3657C131.541 71.9671 132.507 72.4139 133.508 72.6889C134.492 72.9638 135.579 73.1013 136.77 73.1013C138.254 73.1013 139.376 72.8607 140.17 72.3624C140.946 71.864 141.343 71.1595 141.343 70.2487C141.343 69.5613 140.981 68.9943 140.256 68.5647C139.531 68.1351 138.237 67.7398 136.373 67.3618C134.285 66.9322 132.628 66.4167 131.368 65.8152C130.126 65.2138 129.211 64.4577 128.641 63.5641C128.072 62.6705 127.779 61.5879 127.779 60.3163C127.779 58.9072 128.193 57.6356 129.004 56.5186C129.815 55.3844 130.954 54.508 132.404 53.8722C133.853 53.2364 135.476 52.9099 137.305 52.9099C140.498 52.9099 143.121 53.7004 145.175 55.2813C145.52 55.5563 145.744 55.8312 145.899 56.1062C146.038 56.3811 146.124 56.7248 146.124 57.12C146.124 57.6871 145.951 58.1683 145.606 58.5979C145.261 59.0275 144.864 59.2337 144.415 59.2337C144.174 59.2337 143.932 59.1993 143.725 59.1306C143.518 59.0618 143.207 58.9244 142.828 58.701C141.913 58.1167 141.067 57.6871 140.291 57.395C139.514 57.1028 138.53 56.9654 137.34 56.9654C135.976 56.9654 134.889 57.2231 134.112 57.7558C133.318 58.2886 132.939 58.9931 132.939 59.921C132.939 60.4538 133.094 60.9005 133.387 61.2442C133.698 61.5879 134.199 61.8972 134.906 62.1722C135.614 62.4471 136.615 62.7221 137.926 63.0142C140.981 63.6844 143.173 64.5436 144.502 65.5918C145.83 66.64 146.504 68.0835 146.504 69.9222C146.504 71.3485 146.107 72.6201 145.313 73.7027C144.519 74.8025 143.397 75.6445 141.947 76.246C140.498 76.8474 138.824 77.1567 136.908 77.1567C135.13 77.1567 133.491 76.9505 131.955 76.5381Z" fill="#FFCA3A"/>
<path d="M78.4728 44.8674C78.2829 44.6784 78.1967 44.4207 78.1967 44.077V35.9661C78.1967 35.6224 78.2829 35.3646 78.4728 35.1756C78.6626 34.9866 78.9215 34.9006 79.2667 34.9006H82.2005C83.3223 34.9006 84.2715 35.1068 85.0826 35.5021C85.8937 35.9145 86.4978 36.4988 86.9292 37.2549C87.3607 38.011 87.5678 38.9389 87.5678 40.0043C87.5678 41.0697 87.3607 41.9805 86.9292 42.7538C86.515 43.5271 85.8937 44.1113 85.0826 44.5238C84.2715 44.9362 83.305 45.1252 82.1833 45.1252H79.2494C78.9215 45.1424 78.6626 45.0565 78.4728 44.8674ZM82.0279 43.3209C84.2197 43.3209 85.307 42.2211 85.307 40.0215C85.307 37.8391 84.2197 36.7393 82.0279 36.7393H80.4747V43.3037H82.0279V43.3209Z" fill="#00B99E"/>
<path d="M89.5868 44.8674C89.397 44.6784 89.3107 44.4207 89.3107 44.077V35.9661C89.3107 35.6224 89.397 35.3646 89.5868 35.1756C89.7766 34.9866 90.0355 34.9006 90.3807 34.9006H95.5408C96.2657 34.9006 96.6108 35.1928 96.6108 35.777C96.6108 36.3613 96.2484 36.6534 95.5408 36.6534H91.537V39.042H95.2474C95.9723 39.042 96.3174 39.3341 96.3174 39.9184C96.3174 40.5027 95.955 40.7948 95.2474 40.7948H91.537V43.3552H95.5408C96.2657 43.3552 96.6108 43.6474 96.6108 44.2316C96.6108 44.8159 96.2484 45.108 95.5408 45.108H90.3807C90.0355 45.1424 89.7766 45.0565 89.5868 44.8674Z" fill="#00B99E"/>
<path d="M102.289 44.8676C102.099 44.6785 102.013 44.4208 102.013 44.0771V35.949C102.013 35.6053 102.116 35.3476 102.324 35.1413C102.531 34.9351 102.807 34.832 103.152 34.832C103.497 34.832 103.773 34.9351 103.98 35.1413C104.187 35.3476 104.291 35.6225 104.291 35.949V43.3038H108.019C108.726 43.3038 109.089 43.6131 109.089 44.2318C109.089 44.8332 108.726 45.1425 108.019 45.1425H103.083C102.738 45.1425 102.479 45.0566 102.289 44.8676Z" fill="#00B99E"/>
<path d="M119.892 44.2321C119.892 44.507 119.789 44.7304 119.564 44.9195C119.34 45.1085 119.098 45.1944 118.822 45.1944C118.632 45.1944 118.46 45.1429 118.304 45.0398C118.132 44.9366 118.011 44.782 117.925 44.5758L117.148 42.8574H112.195L111.418 44.5758C111.332 44.782 111.211 44.9366 111.039 45.0398C110.866 45.1429 110.694 45.1944 110.504 45.1944C110.228 45.1944 109.969 45.1085 109.744 44.9195C109.52 44.7304 109.417 44.507 109.417 44.2321C109.417 44.0946 109.451 43.94 109.537 43.7681L113.472 35.5369C113.576 35.3135 113.731 35.1245 113.955 35.0042C114.162 34.8839 114.404 34.8152 114.646 34.8152C114.905 34.8152 115.129 34.8839 115.353 35.0042C115.56 35.1245 115.733 35.2963 115.854 35.5197L119.789 43.7509C119.84 43.94 119.892 44.0946 119.892 44.2321ZM112.972 41.1733H116.371L114.68 37.41L112.972 41.1733Z" fill="#00B99E"/>
<path d="M122.55 45.0051C121.894 44.8332 121.342 44.5755 120.927 44.249C120.789 44.1459 120.686 44.0256 120.617 43.9053C120.548 43.785 120.531 43.6304 120.531 43.4413C120.531 43.2007 120.6 42.9945 120.755 42.8055C120.91 42.6165 121.083 42.5306 121.273 42.5306C121.376 42.5306 121.48 42.5478 121.583 42.5821C121.687 42.6165 121.808 42.668 121.963 42.7711C122.377 43.0289 122.809 43.2179 123.223 43.3382C123.654 43.4585 124.12 43.5272 124.638 43.5272C125.276 43.5272 125.777 43.4241 126.105 43.2007C126.45 42.9945 126.623 42.6852 126.623 42.29C126.623 41.9979 126.467 41.7401 126.157 41.5683C125.846 41.3792 125.276 41.2074 124.483 41.0527C123.585 40.8637 122.86 40.6403 122.325 40.3825C121.79 40.1248 121.393 39.7983 121.152 39.4031C120.91 39.025 120.772 38.5438 120.772 37.994C120.772 37.3925 120.945 36.8426 121.307 36.3443C121.67 35.8631 122.153 35.4679 122.774 35.1929C123.395 34.918 124.103 34.7805 124.897 34.7805C126.277 34.7805 127.416 35.1242 128.314 35.8116C128.452 35.9319 128.556 36.0521 128.625 36.1724C128.694 36.2927 128.711 36.4474 128.711 36.6192C128.711 36.8598 128.642 37.066 128.486 37.255C128.331 37.4441 128.159 37.53 127.969 37.53C127.865 37.53 127.762 37.5128 127.675 37.4784C127.589 37.4441 127.451 37.3925 127.296 37.2894C126.899 37.0316 126.536 36.8426 126.191 36.7223C125.846 36.602 125.432 36.5333 124.914 36.5333C124.327 36.5333 123.861 36.6536 123.516 36.877C123.171 37.1004 122.998 37.4097 122.998 37.8049C122.998 38.0283 123.067 38.2345 123.188 38.372C123.326 38.5267 123.533 38.647 123.844 38.7672C124.155 38.8875 124.586 39.0078 125.156 39.1281C126.485 39.4202 127.434 39.7983 128.003 40.2451C128.573 40.6919 128.866 41.3277 128.866 42.1181C128.866 42.7368 128.694 43.2867 128.348 43.7506C128.003 44.2318 127.52 44.5927 126.899 44.8504C126.277 45.1082 125.553 45.2457 124.724 45.2457C123.93 45.2628 123.206 45.1769 122.55 45.0051Z" fill="#00B99E"/>
<path d="M130.609 22.5457C130.264 22.5457 129.936 22.3739 129.729 22.0989L125.915 16.978C125.656 16.6344 125.656 16.1704 125.915 15.8267L129.729 10.7058C129.936 10.4309 130.264 10.259 130.609 10.259H162.519V22.5285H130.609V22.5457Z" fill="#00B99E"/>
<path d="M188.354 39.4892L184.54 44.61C184.333 44.885 184.005 45.0568 183.66 45.0568H151.75V32.7874H183.66C184.005 32.7874 184.333 32.9592 184.54 33.2341L188.354 38.355C188.613 38.6815 188.613 39.1455 188.354 39.4892Z" fill="#00B99E"/>
<path d="M156.565 19.4182C158.328 19.4182 159.758 17.9949 159.758 16.2391C159.758 14.4834 158.328 13.0601 156.565 13.0601C154.802 13.0601 153.372 14.4834 153.372 16.2391C153.372 17.9949 154.802 19.4182 156.565 19.4182Z" fill="#FFCA3A"/>
<path d="M156.565 42.1013C158.328 42.1013 159.758 40.678 159.758 38.9222C159.758 37.1665 158.328 35.7432 156.565 35.7432C154.802 35.7432 153.372 37.1665 153.372 38.9222C153.372 40.678 154.802 42.1013 156.565 42.1013Z" fill="#FFCA3A"/>
</g>
<defs>
<clipPath id="clip0">
<rect width="192" height="88" fill="white"/>
</clipPath>
</defs>
</svg>
